<svg width="206" height="14" viewBox="0 0 206 14" fill="none" xmlns="http://www.w3.org/2000/svg">
<g clip-path="url(#clip0_169_4937)">
<path fill-rule="evenodd" clip-rule="evenodd" d="M199.045 -0.000183105L205.683 6.63786L199.045 13.2759L198.098 12.3283L203.788 6.63786L198.098 0.947384L199.045 -0.000183105Z" fill="white"/>
<path fill-rule="evenodd" clip-rule="evenodd" d="M204.736 7.30777H164.228V5.96771H204.736V7.30777Z" fill="white"/>
<path fill-rule="evenodd" clip-rule="evenodd" d="M6.63805 13.276L0 6.63804L6.63805 0L7.58561 0.947568L1.89514 6.63804L7.58561 12.3285L6.63805 13.276Z" fill="white"/>
<path fill-rule="evenodd" clip-rule="evenodd" d="M0.947572 5.96808H41.4556V7.30815L0.947571 7.30814L0.947572 5.96808Z" fill="white"/>
<path d="M129.947 1.45636H129.947C127.306 1.45636 125.164 3.59793 125.164 6.23969V6.2397C125.164 8.88146 127.306 11.023 129.947 11.023H129.947C132.589 11.023 134.731 8.88146 134.731 6.2397V6.23969C134.731 3.59793 132.589 1.45636 129.947 1.45636Z" fill="white" fill-opacity="0.3"/>
<path d="M102.842 1.45636H102.842C100.2 1.45636 98.0583 3.59793 98.0583 6.23969V6.2397C98.0583 8.88146 100.2 11.023 102.842 11.023H102.842C105.483 11.023 107.625 8.88146 107.625 6.2397V6.23969C107.625 3.59793 105.483 1.45636 102.842 1.45636Z" fill="white" fill-opacity="0.3"/>
<path d="M75.7362 1.45624H75.7362C73.0944 1.45624 70.9528 3.59781 70.9528 6.23957V6.23958C70.9528 8.88134 73.0944 11.0229 75.7362 11.0229H75.7362C78.3779 11.0229 80.5195 8.88134 80.5195 6.23958V6.23957C80.5195 3.59781 78.3779 1.45624 75.7362 1.45624Z" fill="white"/>
</g>
<defs>
<clipPath id="clip0_169_4937">
<rect width="206" height="14" fill="white"/>
</clipPath>
</defs>
</svg>
