<svg width="112" height="113" viewBox="0 0 112 113" fill="none" xmlns="http://www.w3.org/2000/svg">
<g filter="url(#filter0_d_117_14)">
<path d="M92 46.4424C92 66.3246 75.8823 82.4424 56 82.4424C36.1177 82.4424 20 66.3246 20 46.4424C20 26.5601 36.1177 10.4424 56 10.4424C75.8823 10.4424 92 26.5601 92 46.4424Z" fill="#E3B873"/>
</g>
<path d="M56.3396 52.7974C55.9614 52.7974 55.6526 53.0966 55.6526 53.4684V54.7931C55.6526 55.1649 55.9614 55.4641 56.3396 55.4641C56.7178 55.4641 57.0265 55.1649 57.0265 54.7931V53.4684C57.0265 53.0966 56.7178 52.7974 56.3396 52.7974Z" fill="white" stroke="white" stroke-width="0.1"/>
<path d="M73.0581 43.5196L73.0581 43.5195C72.6069 41.3617 71.5951 39.3276 70.1321 37.637C68.7237 36.0094 66.9214 34.7281 64.9118 33.9205C64.5828 32.5844 63.8927 31.2068 62.5386 30.1694C61.2205 29.1597 59.8931 28.965 59.8338 28.9567L59.8338 28.9567C59.6374 28.9294 59.4377 28.9864 59.2872 29.1137C59.1366 29.241 59.0498 29.426 59.0498 29.621V32.9245H56.8254C56.236 31.0104 54.4142 29.6124 52.2634 29.6124C50.0652 29.6124 48.2096 31.0724 47.6632 33.0515C44.5152 33.4772 41.6197 34.968 39.4692 37.2815L39.5059 37.3155L39.4692 37.2815C37.2 39.723 35.95 42.8838 35.95 46.1816C35.95 53.5712 39.8839 59.5815 41.0891 61.247C41.4705 61.7741 42.0945 62.0883 42.7582 62.0883H45.4692C46.5961 62.0883 47.515 61.1942 47.515 60.0924V59.2908C48.1849 59.3885 48.8649 59.4386 49.5457 59.4386H55.6528V60.0924C55.6528 61.1942 56.5717 62.0883 57.6986 62.0883H60.6765C61.634 62.0883 62.4756 61.4258 62.6767 60.5109L62.9969 59.0543C67.173 58.0528 70.5324 55.1963 72.1959 51.4897H74.6837C75.4359 51.4897 76.05 50.8928 76.05 50.1562V44.8568C76.05 44.5001 75.9075 44.165 75.6493 43.9133C75.3912 43.6617 75.0482 43.5232 74.6838 43.5232L73.0592 43.5235C73.0587 43.5222 73.0584 43.5208 73.0581 43.5196ZM42.2111 60.4725L42.2111 60.4725C41.0641 58.8872 37.3239 53.1733 37.3239 46.1815C37.3239 43.2181 38.4469 40.3778 40.4864 38.1836L40.4498 38.1496L40.4864 38.1836C42.3401 36.1892 44.8092 34.875 47.5037 34.4329C47.5187 34.8208 47.5834 35.2044 47.695 35.5742H47.5074C47.1292 35.5742 46.8205 35.8734 46.8205 36.2452C46.8205 36.617 47.1292 36.9162 47.5074 36.9162H57.0191C57.3974 36.9162 57.7061 36.617 57.7061 36.2452C57.7061 35.8734 57.3974 35.5742 57.0191 35.5742H56.8315C56.9592 35.1516 57.0258 34.7112 57.0266 34.2665H59.0498V35.5827C59.0498 35.9545 59.3585 36.2538 59.7367 36.2538C60.1149 36.2538 60.4237 35.9545 60.4237 35.5827V30.5087C61.0183 30.7379 61.843 31.1864 62.5288 32.0419C63.2404 32.9294 63.8056 34.2588 63.8056 36.2453C63.8056 36.6171 64.1144 36.9163 64.4926 36.9163C64.8708 36.9163 65.1795 36.6171 65.1795 36.2453C65.1795 36.0074 65.1716 35.7575 65.1536 35.4997C66.6527 36.2245 67.9978 37.2496 69.0829 38.5035C70.3977 40.023 71.3068 41.8504 71.712 43.7882C71.8426 44.413 72.4049 44.8657 73.0487 44.8656L74.6762 44.8655L74.6761 50.1475H72.7111C73.0469 49.104 73.2538 48.0081 73.3138 46.8788C73.3337 46.5075 73.0411 46.1929 72.6633 46.1739C72.2857 46.1552 71.9615 46.4379 71.9418 46.8092C71.6746 51.8318 68.1861 56.1253 63.3218 57.5756L64.1936 53.6093C64.2736 53.2456 64.0358 52.8896 63.6656 52.8123C63.2961 52.7348 62.9301 52.9644 62.8503 53.3276L61.3334 60.2291C61.2678 60.5277 60.9919 60.7462 60.6765 60.7462H57.6984C57.3268 60.7462 57.0266 60.4516 57.0266 60.0923V57.4426C57.0266 57.0708 56.7178 56.7716 56.3396 56.7716C55.9614 56.7716 55.6527 57.0708 55.6527 57.4426V58.0964H49.5455C48.8637 58.0964 48.1831 58.0405 47.5148 57.9317V53.4682C47.5148 53.0964 47.2061 52.7972 46.8279 52.7972C46.4497 52.7972 46.1409 53.0964 46.1409 53.4682V60.0924C46.1409 60.4517 45.8407 60.7462 45.4691 60.7462H42.7582C42.5355 60.7462 42.3366 60.6461 42.2111 60.4725ZM52.2633 30.9546C54.1334 30.9546 55.6527 32.4378 55.6527 34.2581C55.6527 34.7129 55.5552 35.1612 55.371 35.5743H49.1555C48.9714 35.1611 48.8737 34.7129 48.8737 34.2581C48.8737 32.4377 50.3931 30.9546 52.2633 30.9546Z" fill="white" stroke="white" stroke-width="0.1"/>
<path d="M63.9116 43.9596L63.9116 43.9596C64.315 42.9048 65.3808 42.1985 66.5621 42.1985C67.7433 42.1985 68.8093 42.9049 69.2125 43.9596C69.2125 43.9596 69.2125 43.9596 69.2125 43.9596L69.1658 43.9775C69.2887 44.2988 69.1211 44.6565 68.7915 44.7763L63.9116 43.9596ZM63.9116 43.9596C63.7784 44.308 63.9605 44.6942 64.3155 44.8233M63.9116 43.9596L64.3155 44.8233M64.3155 44.8233C64.67 44.9523 65.0657 44.7769 65.1986 44.4292L64.3155 44.8233ZM68.5691 44.8656C68.6488 44.8656 68.7297 44.852 68.8086 44.8233L65.1986 44.4292C65.4011 43.8997 65.9479 43.5406 66.562 43.5406C67.1761 43.5406 67.723 43.8997 67.9255 44.4292C68.0289 44.6997 68.2913 44.8656 68.5691 44.8656Z" fill="white" stroke="white" stroke-width="0.1"/>
<path d="M55.2116 46.5948C54.5601 46.153 53.7201 45.8824 52.9502 45.67V42.5911C53.5451 42.6683 54.0484 42.8406 54.4047 43.0533C54.7758 43.275 54.9733 43.5313 54.9733 43.7598C54.9733 44.1316 55.2821 44.4308 55.6603 44.4308C56.0385 44.4308 56.3472 44.1316 56.3472 43.7598C56.3472 43.1042 55.9732 42.518 55.3589 42.0748C54.754 41.6385 53.9127 41.3374 52.9502 41.2396V41.2136C52.9502 40.8418 52.6414 40.5425 52.2632 40.5425C51.885 40.5425 51.5763 40.8418 51.5763 41.2136V41.2396C50.6138 41.3374 49.7724 41.6385 49.1676 42.0748C48.5533 42.518 48.1792 43.1042 48.1792 43.7598C48.1792 44.6873 48.6508 45.3182 49.3149 45.7686C49.9663 46.2104 50.8063 46.4811 51.5763 46.6934V49.7723C50.9814 49.6952 50.4781 49.5229 50.1218 49.3101C49.7506 49.0884 49.5532 48.8321 49.5532 48.6037C49.5532 48.2319 49.2444 47.9326 48.8662 47.9326C48.488 47.9326 48.1792 48.2319 48.1792 48.6037C48.1792 49.2593 48.5533 49.8454 49.1676 50.2886C49.7724 50.725 50.6138 51.026 51.5763 51.1238V51.1499C51.5763 51.5217 51.885 51.8209 52.2632 51.8209C52.6414 51.8209 52.9502 51.5217 52.9502 51.1499V51.1238C53.9127 51.026 54.754 50.725 55.3589 50.2886C55.9732 49.8454 56.3472 49.2593 56.3472 48.6037C56.3472 47.6761 55.8757 47.0452 55.2116 46.5948ZM51.5763 42.5911V45.2873C50.8286 45.055 50.3248 44.8338 50.0067 44.5924C49.6827 44.3467 49.5532 44.0818 49.5532 43.7598C49.5532 43.5313 49.7506 43.275 50.1218 43.0533C50.4781 42.8406 50.9814 42.6683 51.5763 42.5911ZM54.4047 49.3102C54.0484 49.523 53.545 49.6952 52.9502 49.7724V47.0762C53.6979 47.3085 54.2016 47.5297 54.5198 47.7711C54.8437 48.0168 54.9733 48.2817 54.9733 48.6038C54.9733 48.8322 54.7758 49.0885 54.4047 49.3102Z" fill="white" stroke="white" stroke-width="0.1"/>
<defs>
<filter id="filter0_d_117_14" x="0" y="0.442383" width="112" height="112" filterUnits="userSpaceOnUse" color-interpolation-filters="sRGB">
<feFlood flood-opacity="0" result="BackgroundImageFix"/>
<feColorMatrix in="SourceAlpha" type="matrix" values="0 0 0 0 0 0 0 0 0 0 0 0 0 0 0 0 0 0 127 0" result="hardAlpha"/>
<feOffset dy="10"/>
<feGaussianBlur stdDeviation="10"/>
<feColorMatrix type="matrix" values="0 0 0 0 0.929412 0 0 0 0 0.752941 0 0 0 0 0.470588 0 0 0 0.2 0"/>
<feBlend mode="normal" in2="BackgroundImageFix" result="effect1_dropShadow_117_14"/>
<feBlend mode="normal" in="SourceGraphic" in2="effect1_dropShadow_117_14" result="shape"/>
</filter>
</defs>
</svg>
